<svg version="1.2" xmlns="http://www.w3.org/2000/svg" viewBox="188 310 135 135" width="135" height="135">
	<title>138708-OT943N-844</title>
	<style>
		.s0 { fill: #ffffff } 
		.s1 { fill: #777873 } 
		.s2 { fill: #32302d } 
		.s3 { fill: #4d4c48 } 
	</style>
	<g id="Folder 1">
		<g id="&lt;Group&gt;">
			<path id="&lt;Path&gt;" fill-rule="evenodd" class="s0" d="m296 338c-8.6-7.8-19.2-11.9-30.5-13.3-11.4-1.3-23.3-1.1-34.1 2.8-3.8 1.3-7.4 3.1-10.7 5.4-7.8 5.4-13.9 13-17.9 21.6-8.2 17.8-6.8 40.5 6.1 55.3 7.5 8.7 18.2 14.2 29.4 17 19.2 5 41 2.1 56.3-10.6 11.4-9.5 18.4-24 18.6-38.9 0.3-15.2-6.4-29.5-17.2-39.3z"/>
			<path id="&lt;Path&gt;" fill-rule="evenodd" class="s1" d="m222.5 380.2q-2-1.8-3.3-4.3c-2.9-5.4-2.5-12.3 0.7-17.6 3.2-5.2 9-8.6 15.1-9.2 5.9-0.6 11.7 1.3 17.6 1.6 6.1 0.3 12.2-1 18.3-1.3 6.1-0.3 12.7 0.6 17.2 4.8 3.4 3.2 5.1 7.9 5.2 12.6 0 8.5-4.6 17.4-13.2 19.8-4.7 1.3-9.7 0.4-14.4-0.9-4.7-1.4-9.4-3.1-14.3-3.4-3.6-0.3-7.3 0.2-10.8 1.2-2.9 0.7-5 1.7-7.9 1.2-3.9-0.7-7.5-2-10.2-4.5z"/>
			<g id="&lt;Group&gt;">
				<path id="&lt;Path&gt;" fill-rule="evenodd" class="s2" d="m276.8 370.1c1.8 0.7 4 0.6 5.7-0.3 1.7-0.9 3-2.7 3.3-4.6 1.5-9.1-14.6-10.4-13.3-0.3 0.3 2.4 2.1 4.4 4.3 5.2z"/>
			</g>
			<g id="&lt;Group&gt;">
				<path id="&lt;Path&gt;" fill-rule="evenodd" class="s2" d="m230 369.1c1.9 0.7 4 0.6 5.8-0.3 1.7-0.9 3-2.7 3.3-4.6 1.4-9.1-14.7-10.4-13.4-0.3 0.3 2.4 2.1 4.4 4.3 5.2z"/>
			</g>
			<path id="&lt;Path&gt;" fill-rule="evenodd" class="s3" d="m215 395.6c-1.7 7 0.5 14.3 5 20.4 7.2 10 20.7 16.9 34.8 17.5 14.1 0.5 28.5-5.4 36.1-15.2 7.5-9.9 7.8-23.4 0.3-33.2-14-18.4-47.2-18-65.5-4.5-5.3 3.9-9.4 9.2-10.7 15z"/>
			<path id="&lt;Path&gt;" fill-rule="evenodd" class="s3" d="m194.9 327.9c-2.4 0.6-5 1.5-5.9 3.8-0.7 1.8 0 3.9 0.8 5.7 2.9 6.6 7 12.5 10.7 18.6 0.7 1.2 1.6 2.5 3 3 1.9 0.8 5.1-0.3 7-1.1 2.5-1 4.9-3.4 7-5.3 4.7-4.1 8.8-9 12.1-14.3 1.4-2.3 2.6-4.7 3.8-7.1 0.6-1.4 3-3.4 2.7-5-0.5-3.2-6.8-2.8-9-2.7-2.3 0-4.7 0.4-7.1 0.6-8.3 0.6-16.6 1.9-24.7 3.7q-0.2 0.1-0.4 0.1z"/>
			<path id="&lt;Path&gt;" fill-rule="evenodd" class="s3" d="m315.4 327.6c2.4 0.5 5 1.5 5.9 3.8 0.7 1.8 0 3.9-0.8 5.7-2.9 6.6-7 12.4-10.7 18.6-0.7 1.2-1.6 2.5-3 3-1.9 0.7-5.1-0.3-7-1.1-2.6-1.1-5-3.5-7-5.3-4.7-4.2-8.8-9-12.1-14.4-1.4-2.2-2.6-4.6-3.8-7-0.7-1.4-3-3.5-2.7-5 0.5-3.3 6.8-2.9 9-2.8 2.3 0.1 4.7 0.4 7 0.6 8.4 0.7 16.7 1.9 24.8 3.8q0.2 0 0.4 0.1z"/>
			<path id="&lt;Path&gt;" fill-rule="evenodd" class="s2" d="m244.2 382.4q-0.4 0.6-0.4 1.3c0 1.2 1 2.1 1.8 2.8q3.7 3.1 7.4 6.2c1.3 1.1 2.7 2.3 4.4 2.5 1.6 0.3 3.4-0.4 4.7-1.4 2.1-1.7 10.2-10.4 7.2-13.1-1.4-1.3-6.5-0.5-8.3-0.5-4.9-0.1-9.4-0.5-14.2 0.6-1 0.2-2.1 0.8-2.6 1.6z"/>
			<path id="&lt;Path&gt;" fill-rule="evenodd" class="s2" d="m256.8 410.8c-0.1 2.8-0.2 5.7 0.4 8.4 0.1 0.6 0.4 1.4 1 1.6 0.7 0.3 1.5-0.2 1.9-0.8 0.3-0.7 0.3-1.5 0.3-2.2q-0.4-11.4-0.8-22.8c-0.1-0.8-0.4-4.8-1.8-4.5-1 0.2-0.6 3.2-0.6 3.9 0 5.5-0.3 11-0.4 16.4z"/>
			<path id="&lt;Path&gt;" class="s2" d="m96.7 143.3c-0.7 0.5-1.5 1.3-1.1 2.1 0.2 0.5 0.9 0.7 1.5 0.6 0.6-0.1 1.1-0.5 1.6-0.8 2.5-1.5 5.7-1.7 8.3-0.6 0.6 0.3 1.2 0.6 1.9 0.7 0.7 0.1 1.5-0.1 1.7-0.8 0.3-0.5 0.1-1.1-0.3-1.5-0.3-0.5-0.8-0.8-1.3-1-1.6-0.8-4.9-2.9-6.7-2.6-1.7 0.2-4.2 2.9-5.6 3.9z"/>
		</g>
	</g>
</svg>