<svg version="1.2" xmlns="http://www.w3.org/2000/svg" viewBox="188 310 135 135" width="135" height="135">
	<title>138708-OT943N-844</title>
	<style>
		.s0 { fill: #60c198 } 
		.s1 { fill: #32302d } 
		.s2 { fill: #ffc94e } 
		.s3 { fill: #f2a638 } 
	</style>
	<g id="Folder 1">
		<g id="&lt;Group&gt;">
			<path id="&lt;Path&gt;" class="s0" d="m297 343c-8.6-7.8-19.4-12-30.8-13.4-11.5-1.4-23.5-1.2-34.5 2.8-3.9 1.3-7.5 3.2-10.9 5.5-7.8 5.4-14 13.2-18 21.8-8.4 18-6.9 41 6.1 56 7.6 8.8 18.5 14.3 29.7 17.2 19.5 5 41.6 2.1 57-10.7 11.6-9.6 18.6-24.4 18.9-39.3 0.3-15.4-6.5-29.9-17.5-39.9z"/>
			<g id="&lt;Group&gt;">
				<path id="&lt;Path&gt;" class="s1" d="m270.1 378.7c1.9 0.6 4 0.5 5.8-0.4 1.7-0.9 3-2.7 3.3-4.6 1.5-9.3-14.8-10.5-13.5-0.4 0.3 2.5 2.1 4.5 4.4 5.4z"/>
			</g>
			<g id="&lt;Group&gt;">
				<path id="&lt;Path&gt;" class="s1" d="m235.8 379c1.9 0.7 4 0.6 5.8-0.3 1.7-1 3-2.7 3.3-4.7 1.5-9.2-14.8-10.5-13.5-0.3 0.3 2.4 2.2 4.5 4.4 5.3z"/>
			</g>
			<path id="&lt;Path&gt;" class="s2" d="m290.8 392.2c-4.6-1.8-10.1 0.4-14.8-1.4-3.7-1.4-6-4.8-8.5-7.8-2.6-3.1-5.8-6.5-10.1-6.2-4.4 0.3-8.1 3-10.7 6.2-2.5 3-4.9 6.4-8.5 7.8-4.7 1.8-10.2-0.4-14.9 1.4-1.3 0.6-2.7 2-2.1 3.3 0.2 0.7 0.9 1.1 1.5 1.4q3.2 1.7 6.6 2.9c2.5 1 5.3 1.8 7.1 3.8 2.6 3 2.3 7.5 3.2 11.3 1.7 6.6 7.7 11.8 14.4 12.4 1 0.1 2.1 0.1 3.1-0.1 1 0.2 2.1 0.2 3.1 0.1 6.7-0.6 12.7-5.8 14.3-12.4 1-3.8 0.7-8.3 3.3-11.3 1.8-2 4.6-2.8 7.1-3.8q3.4-1.2 6.6-2.9c0.6-0.3 1.2-0.7 1.5-1.4 0.6-1.3-0.8-2.7-2.2-3.3z"/>
			<path id="&lt;Path&gt;" class="s3" d="m245.3 392.3c-0.6 0.8-1.1 1.7-1 2.7 0.2 1.6 1.9 2.8 3.5 2.8 1.7 0.1 3.2-0.9 4.4-2.1 1.8-1.8 3.4-5.1 2-7.7-1.3-2.4-3.8-0.9-5.1 0.6-1.2 1.3-2.7 2.3-3.8 3.7z"/>
			<path id="&lt;Path&gt;" class="s3" d="m268.2 392.3c0.6 0.8 1 1.7 1 2.7-0.2 1.6-1.9 2.8-3.5 2.8-1.7 0.1-3.2-0.9-4.4-2.1-1.8-1.8-3.4-5.1-2-7.7 1.3-2.4 3.8-0.9 5.1 0.6 1.2 1.3 2.7 2.3 3.8 3.7z"/>
			<path id="&lt;Path&gt;" class="s0" d="m236.6 329.3c0.3-0.8 1.1-1.3 1.8-1.6 3.1-1.3 6.9-0.9 9.7 1 0-1.5-0.7-2.9-1.2-4.3-0.5-1.3-0.8-3 0-4.2 0.5-1.1 1.8-1.7 2.9-1.5 1.2 0.1 2.2 1.1 2.5 2.2 0.3 1.1 0 2.3 0.1 3.4 0.1 1.1 1.2 2.3 2.3 1.8 0.7-0.3 0.9-1.3 1-2.2 0.4-2.7 1.5-5.3 3.2-7.4 0.7-1 2.1-2 3.1-1.3 0.7 0.5 0.8 1.5 0.9 2.3q0.1 3.7 0.2 7.5 2.2-2.5 4.4-5c0.6-0.7 1.6-1.4 2.2-0.7 0.4 0.4 0.3 1 0.1 1.6q-1.1 3.8-2.2 7.6c2.5-0.7 4.3-3.6 7-3.5 1.9 0 3.4 1.9 3.4 3.9 0.1 1.9-1.1 3.7-2.6 4.8-1.5 1.2-3.4 1.8-5.3 2.2-5.6 1.4-11.4 1.6-17.1 1.4-4.2-0.2-7.8-0.3-11.3-2.6-1.6-1-5.7-3-5.1-5.4z"/>
		</g>
	</g>
</svg>