<svg version="1.2" xmlns="http://www.w3.org/2000/svg" viewBox="188 310 135 135" width="135" height="135">
	<title>138708-OT943N-844</title>
	<style>
		.s0 { fill: #7c8b96 } 
		.s1 { fill: #525d65 } 
		.s2 { fill: #929fa9 } 
		.s3 { fill: #32302d } 
		.s4 { fill: #efc9a5 } 
		.s5 { fill: #a6b3bd } 
	</style>
	<g id="Folder 1">
		<g id="&lt;Group&gt;">
			<g id="&lt;Group&gt;">
				<path id="&lt;Path&gt;" fill-rule="evenodd" class="s0" d="m223.3 338c-4.2-1.8-9.1-2.6-13.6-1.5-3.5 0.9-6.5 3-8.8 5.5-2.2 2.6-3.6 5.5-4.8 8.5-3 8.2-3.5 16.9-2.8 25.4 0.7 8.6 2.7 17 4.7 25.4 0.4 1.6 0.8 3.3 2.1 4.5 2.5 2.5 7.3 2.3 10.8 0.8 5.4-2.2 9.3-6.5 12.4-10.9 5.4-7.7 9.2-16.3 11.2-25.1 0.9-4.4 1.5-8.9 1.6-13.4 0.1-3.4 0.8-8.9-1.3-11.9-0.9-1.3-2.6-2.1-3.9-3-2.4-1.6-4.8-3.2-7.6-4.3z"/>
				<path id="&lt;Path&gt;" fill-rule="evenodd" class="s1" d="m205.7 348.7c-1.4 1.2-2.8 3-2.1 4.8 0.6 1.5 2.4 2.3 3 3.9 0.3 1.1-0.1 2.4-0.8 3.4-0.7 0.9-1.7 1.7-2.4 2.6-2 2.4-2.9 5.7-2.2 8.7 0.5 2.6 2.1 4.9 2.4 7.5 0.3 3.7-2.1 7.3-1.5 11 0.6 3.3 3.7 5.9 7.1 6.4 3.4 0.5 6.9-0.9 9.5-3 2.6-2.2 4.6-5.1 6.2-8.1 2.2-4.3 4-8.9 5.1-13.6 0.9-4.1 1.4-8.3 1-12.4-0.5-4-2.1-10-5.3-12.6-3.3-2.8-9.2-3-13.1-2-2.5 0.6-4.9 1.7-6.9 3.4z"/>
			</g>
			<g id="&lt;Group&gt;">
				<path id="&lt;Path&gt;" fill-rule="evenodd" class="s0" d="m286.1 338c4.1-1.8 9.1-2.6 13.5-1.5 3.6 0.9 6.6 3 8.8 5.5 2.2 2.6 3.7 5.5 4.8 8.5 3.1 8.2 3.6 16.9 2.9 25.4-0.8 8.6-2.8 17-4.8 25.4-0.3 1.6-0.8 3.3-2 4.5-2.5 2.5-7.3 2.3-10.8 0.8-5.4-2.2-9.3-6.5-12.4-10.9-5.4-7.7-9.2-16.3-11.2-25.1-1-4.4-1.5-8.9-1.6-13.4-0.1-3.4-0.8-8.9 1.3-11.9 0.8-1.3 2.6-2.1 3.9-3 2.4-1.6 4.8-3.2 7.6-4.3z"/>
				<path id="&lt;Path&gt;" fill-rule="evenodd" class="s1" d="m303.7 348.7c1.4 1.2 2.7 3 2.1 4.8-0.6 1.5-2.5 2.3-3 3.9-0.4 1.1 0.1 2.4 0.8 3.4 0.7 0.9 1.6 1.7 2.4 2.6 2 2.4 2.8 5.7 2.2 8.7-0.6 2.6-2.2 4.9-2.4 7.5-0.3 3.7 2 7.3 1.4 11-0.5 3.3-3.7 5.9-7.1 6.4-3.3 0.5-6.8-0.9-9.4-3-2.7-2.2-4.6-5.1-6.2-8.1-2.3-4.3-4-8.9-5.1-13.6-1-4.1-1.5-8.3-1-12.4 0.4-4 2-10 5.3-12.6 3.3-2.8 9.1-3 13.1-2 2.5 0.6 4.9 1.7 6.9 3.4z"/>
			</g>
			<path id="&lt;Path&gt;" fill-rule="evenodd" class="s2" d="m283.2 347.5c-6.1-6.1-13.6-9.4-21.6-10.5-8-1-16.4-0.9-24.1 2.2-2.7 1.1-5.2 2.5-7.6 4.3-5.5 4.3-9.8 10.3-12.6 17.1-5.8 14.1-4.8 32.1 4.3 43.8 5.3 6.9 12.9 11.2 20.8 13.5 13.6 3.9 29 1.6 39.8-8.4 8.1-7.5 13-19.1 13.2-30.8 0.2-12-4.5-23.4-12.2-31.2z"/>
			<g id="&lt;Group&gt;">
				<path id="&lt;Path&gt;" fill-rule="evenodd" class="s3" d="m266.4 375.4c1.4 0.6 3.1 0.5 4.5-0.2 1.4-0.8 2.4-2.1 2.6-3.7 1.2-7.2-11.6-8.2-10.6-0.2 0.2 1.9 1.7 3.5 3.5 4.1z"/>
			</g>
			<g id="&lt;Group&gt;">
				<path id="&lt;Path&gt;" fill-rule="evenodd" class="s3" d="m241.1 374.4c1.5 0.5 3.1 0.4 4.5-0.3 1.4-0.7 2.4-2.1 2.7-3.7 1.1-7.2-11.7-8.2-10.7-0.2 0.3 1.9 1.7 3.5 3.5 4.2z"/>
			</g>
			<path id="&lt;Path&gt;" fill-rule="evenodd" class="s4" d="m234.2 394.2c-3.1 1.6-6.4 2.7-9.6 3.8 0.9 1.3 2.4 2.1 4 2.4 1.6 0.3 3.3 0.1 4.9-0.1 2.1-0.3 4.2-0.8 6.2-1.7 1.9-0.9 3.6-2.5 4.3-4.5 0.7-1.8 0.4-6.3-2.6-5.2-1.2 0.5-2.2 2-3.3 2.8q-1.8 1.4-3.9 2.5z"/>
			<path id="&lt;Path&gt;" fill-rule="evenodd" class="s4" d="m270.1 395c3.1 1.6 6.3 2.7 9.6 3.8-0.9 1.3-2.5 2.1-4.1 2.4-1.6 0.3-3.2 0.1-4.8-0.1-2.1-0.3-4.3-0.8-6.2-1.7-1.9-0.9-3.6-2.5-4.4-4.5-0.6-1.8-0.4-6.3 2.6-5.1 1.2 0.4 2.3 1.9 3.3 2.7q1.9 1.4 4 2.5z"/>
			<path id="&lt;Path&gt;" fill-rule="evenodd" class="s5" d="m246.2 379.2c-1.8 1.1-3.4 2.6-4.7 4.3-2 2.5-3.3 5.5-4.2 8.6-1.9 6.8-1.5 14.2 1.1 20.8 0.6 1.6 1.4 3.3 2.3 4.7 0.9 1.1 2 2 2.8 3.1 2.1 2.9 4.8 5.2 8 6.6 3 1.3 6.3 1.8 9.5 1.8 6.4 0.1 12.9-1.9 14.9-8.6 0.9-2.7 1.1-5.5 2.4-8 0.4-0.8 0.9-1.6 1.2-2.5 0.3-0.8 0.4-1.8 0-2.6-0.4-0.8-1.4-1.4-2.3-1-0.6 0.3-0.9 1-1.3 1.7-0.4 0.6-1 1.2-1.8 1.1-1-0.2-1.1-1.8-1.9-2.6-0.7-0.7-2-0.5-2.6 0.2-0.7 0.8-0.7 2-0.1 2.9 0.5 0.9 1.6 1.6 2 2.6 0.3 1.2-0.3 2.4-1.1 3.3-1 1.1-2.3 1.9-3.7 1.9-2.3 0.1-4.2-2.1-4.7-4.3-0.6-2.8 0.3-5.7 1.7-8.2 1.4-2.4 3.3-4.6 4.9-6.9 1.6-2.3 3-4.9 3.2-7.7 0.2-3.6-1.6-7-4.2-9.3-2.7-2.3-6.3-3.4-9.8-3.7-3.5-0.2-8.5-0.1-11.6 1.8z"/>
			<path id="&lt;Path&gt;" fill-rule="evenodd" class="s2" d="m245.2 387.4c0.4 0.6 1.2 0.6 1.9 0.6 1.6-0.2 3.1-0.7 4.7-1 1.5-0.3 3.3-0.3 4.6 0.6 1.8 1.2 3.1 4.1 5.7 2.5 1.2-0.9 2.1-2.6 1.2-4-1.8-2.9-7.7-2.7-10.6-2.4-1.4 0.1-8.8 1.1-7.5 3.7z"/>
			<path id="&lt;Path&gt;" fill-rule="evenodd" class="s2" d="m244.6 393.2c-0.5 0.2-0.9 0.4-1.2 0.7-0.3 0.4-0.5 0.9-0.3 1.3 0.3 0.7 1.3 0.8 2 0.7 1.8-0.2 3.4-0.7 5.2-1 1.7-0.2 3.5-0.3 5.1 0.5 0.4 0.2 0.8 0.4 1.3 0.5 0.4 0 0.9-0.2 1.1-0.6 0.1-0.4-0.1-0.8-0.3-1.1-1.2-1.8-3.3-2.1-5.3-2.1-2.7 0.1-5.1 0-7.6 1.1z"/>
			<path id="&lt;Path&gt;" fill-rule="evenodd" class="s2" d="m244.9 401.4c-0.5 0.2-0.9 0.6-1.1 1.1-0.3 0.4-0.3 1.1 0 1.5 0.4 0.4 0.9 0.5 1.4 0.4 0.5-0.1 1-0.4 1.4-0.6 2.5-1.2 5.2-1.7 7.9-1.3 0.8 0.1 1.8 0.2 2.2-0.5 0.3-0.7-0.4-1.5-1.1-1.9-1.4-0.7-3.4-0.7-5-0.6-2 0.1-4 0.7-5.7 1.9z"/>
			<path id="&lt;Path&gt;" fill-rule="evenodd" class="s2" d="m246.3 412.4c0.1 0.2 0.4 0.4 0.6 0.5 0.3 0 0.6-0.1 0.9-0.1q2-0.6 3.9-1.1c1-0.3 3.3-0.4 4-1.2 0.8-0.9-0.4-2.3-1.1-2.8-1.8-1.2-4.1 0.3-5.6 1.3-0.7 0.6-2.9 2.2-2.7 3.4z"/>
			<path id="&lt;Path&gt;" fill-rule="evenodd" class="s2" d="m256.4 414.9c-2.9-0.1-6 2.3-7.6 4.4-0.2 0.1-0.3 0.3-0.3 0.6 0.1 0.4 0.7 0.4 1.1 0.3 2.7-0.7 5.2-2.4 7-4.6 0.1-0.2 0.2-0.4 0.1-0.5-0.1-0.1-0.2-0.2-0.3-0.2z"/>
			<path id="&lt;Path&gt;" fill-rule="evenodd" class="s2" d="m255.3 422.8c-0.1 0.4-0.1 0.7 0.1 1 0.2 0.1 0.5 0.1 0.7 0 0.2-0.1 0.4-0.3 0.5-0.4q1.1-1.2 2.2-2.3c0.5-0.4 1.3-1.3 1-2.1-0.3-0.7-1.2-0.1-1.7 0.2-1.4 0.7-2.3 2.2-2.8 3.6z"/>
			<path id="&lt;Path&gt;" fill-rule="evenodd" class="s2" d="m261.2 424.4c-0.1 0.5-0.1 1.1 0.3 1.4 0.2 0.1 0.6 0.1 0.9 0 0.3-0.2 0.5-0.5 0.7-0.7 0.4-0.7 2.2-4.1 0.8-4.2-1.6-0.2-2.4 2.4-2.7 3.5z"/>
			<path id="&lt;Path&gt;" fill-rule="evenodd" class="s2" d="m267.1 424.4c0 0.2 0.1 0.5 0.2 0.7 0.1 0.3 0.4 0.4 0.6 0.4 0.4 0 0.6-0.3 0.7-0.7 0.6-1.3 0.8-3.3 0-4.6-1.2 1.1-1.6 2.5-1.5 4.2z"/>
		</g>
	</g>
</svg>