<svg version="1.2" xmlns="http://www.w3.org/2000/svg" viewBox="188 310 135 135" width="135" height="135">
	<title>138708-OT943N-844</title>
	<style>
		.s0 { fill: #f3703a } 
		.s1 { fill: #32302d } 
		.s2 { fill: #ffffff } 
		.s3 { fill: #cc482e } 
	</style>
	<g id="Folder 1">
		<g id="&lt;Group&gt;">
			<path id="&lt;Path&gt;" fill-rule="evenodd" class="s0" d="m290.8 360.6c-7.1-6.3-16-9.6-25.5-10.7-9.5-1.1-19.4-0.9-28.5 2.2-3.2 1.1-6.2 2.6-9 4.4-6.5 4.3-11.6 10.5-14.9 17.5-6.9 14.3-5.7 32.7 5 44.7 6.3 7 15.3 11.4 24.6 13.7 16.1 4 34.4 1.7 47.2-8.6 9.5-7.7 15.4-19.4 15.6-31.4 0.2-12.3-5.4-23.8-14.5-31.8z"/>
			<g id="&lt;Group&gt;">
				<path id="&lt;Path&gt;" fill-rule="evenodd" class="s1" d="m274.5 385c1.6 0.5 3.3 0.4 4.8-0.3 1.4-0.8 2.5-2.2 2.8-3.7 1.2-7.4-12.3-8.4-11.2-0.3 0.2 1.9 1.8 3.6 3.6 4.3z"/>
			</g>
			<g id="&lt;Group&gt;">
				<path id="&lt;Path&gt;" fill-rule="evenodd" class="s1" d="m236.5 385.5c1.6 0.6 3.3 0.5 4.8-0.3 1.4-0.7 2.5-2.1 2.8-3.7 1.2-7.4-12.3-8.4-11.2-0.2 0.2 1.9 1.8 3.5 3.6 4.2z"/>
			</g>
			<path id="&lt;Path&gt;" fill-rule="evenodd" class="s2" d="m312.2 396.5c-0.2-2-2.2-3.2-4.1-3.9-7.3-3-15.4-4-23.3-2.9-3.3 0.5-6.6 1.4-9.8 2.7-6.8 2.6-13.6 7.7-17.6 14.2-4.1-6.5-10.8-11.6-17.7-14.2-3.1-1.3-6.4-2.2-9.8-2.7-7.8-1.1-16-0.1-23.3 2.9-1.8 0.7-3.9 1.9-4.1 3.9-0.1 1.4 0.9 2.8 2.1 3.5 1.3 0.8 2.8 1.1 4.3 1.4-1.5 0.6-3 1.5-3.8 3-0.8 1.4-0.6 3.4 0.7 4.3 1.1 0.8 2.8 0.7 3.7 1.8 1.1 1.3-0.1 3.3-0.4 5-0.6 2.9 1.6 6 4.5 6.5 2 0.3 4.4-0.1 5.6 1.4 0.9 1.3 0.2 3.1 0.8 4.5 0.8 1.8 3.1 2.3 5.1 2.6 2.3 0.5 4.5 1.2 6.8 1.8 7.5 2.3 15.2 4.6 23.1 4.9 9.7 0.4 18.8-2.2 27.8-4.9 2.3-0.6 4.6-1.3 6.9-1.8 1.9-0.3 4.2-0.8 5-2.6 0.6-1.4 0-3.2 0.9-4.5 1.1-1.5 3.6-1.1 5.5-1.4 3-0.5 5.2-3.6 4.6-6.5-0.4-1.7-1.6-3.7-0.4-5 0.9-1.1 2.5-1 3.6-1.8 1.4-0.9 1.6-2.9 0.8-4.3-0.8-1.5-2.3-2.4-3.8-3 1.4-0.3 3-0.6 4.2-1.4 1.3-0.7 2.3-2.1 2.1-3.5z"/>
			<path id="&lt;Path&gt;" fill-rule="evenodd" class="s1" d="m262.1 425.7c-0.6-0.3-1.6-0.9-2.6-1.3q0-0.1 0-0.2-0.3-7.9-0.5-15.7c0.6-0.2 1.3-0.5 1.8-0.9 1.5-1.1 7.3-7.1 5.1-9-1-0.9-4.7-0.3-5.9-0.4-3.5 0-6.8-0.3-10.2 0.5-0.7 0.1-1.4 0.5-1.8 1.1q-0.3 0.4-0.3 0.9c0 0.8 0.7 1.4 1.3 1.9q2.6 2.2 5.3 4.3c0.9 0.7 1.8 1.5 3 1.7-0.1 3.6-0.2 7.2-0.4 10.8 0 1.5 0 3.1 0.2 4.6-1.3 0.4-2.8 2-3.8 2.6-0.5 0.4-1 0.9-0.8 1.4 0.2 0.4 0.7 0.6 1.1 0.5 0.4-0.1 0.8-0.4 1.2-0.6 1.7-1 4-1.1 5.9-0.4 0.5 0.2 0.9 0.4 1.4 0.5 0.4 0.1 1-0.1 1.2-0.5 0.2-0.4 0-0.8-0.2-1.1-0.3-0.3-0.6-0.5-1-0.7z"/>
			<path id="&lt;Path&gt;" fill-rule="evenodd" class="s0" d="m200.9 324c-1.3 4.9-2.5 9.8-2.8 14.9-0.4 5.8 0.5 11.8 3.5 16.9 2.5 4.1 6.5 7.4 11.1 9.2 2.3 1 4.7 1.6 7.2 1.8 1.2 0.1 2.8 0.3 3.9 0 1.2-0.3 2.4-1.2 3.4-1.8q3.6-1.9 6.9-4.1c1.9-1.3 4.3-2.7 5.1-4.9 1.2-3.1-1.4-4.8-3.5-6.5q-4.3-3.6-8.6-7.3-8.5-7.3-16.7-15-3.2-2.9-6.3-5.8c-0.5-0.6-1.4-1.1-2-0.7-0.4 0.2-0.5 0.7-0.7 1.1q-0.2 1.1-0.5 2.2z"/>
			<path id="&lt;Path&gt;" fill-rule="evenodd" class="s3" d="m220.1 360.4c-3.9-0.1-7.5-1.8-10.8-3.8-1.6-1-3.3-2.4-3.3-4.2 0-1.8 1.6-3.3 3.1-4.4-1.3 0-2.6-1-2.9-2.3-0.2-1.2 0.6-2.6 1.9-3 0.8-0.3 1.9-0.4 2.1-1.2 0.1-0.5-0.3-0.9-0.6-1.3q-1.3-1.4-2.6-2.8c-0.6-0.6-1.2-1.2-1.4-2-0.3-0.8-0.1-1.8 0.5-2.2 0.9-0.6 2.1-0.2 3.1 0.2 5.4 2.7 10.3 6.6 14 11.3 2.2 2.7 4.9 5.8 5.5 9.3 0.8 4.8-4.5 6.6-8.6 6.4z"/>
			<path id="&lt;Path&gt;" fill-rule="evenodd" class="s0" d="m308.8 323.4c1.3 4.9 2.5 9.9 2.8 15 0.3 5.8-0.6 11.8-3.6 16.8-2.5 4.2-6.5 7.4-11 9.3-2.3 0.9-4.8 1.6-7.3 1.8-1.2 0.1-2.7 0.3-3.8 0-1.2-0.4-2.4-1.2-3.5-1.8q-3.5-1.9-6.9-4.2c-1.9-1.3-4.2-2.6-5.1-4.8-1.2-3.2 1.4-4.8 3.5-6.6q4.4-3.5 8.6-7.2 8.6-7.4 16.8-15 3.1-2.9 6.2-5.9c0.6-0.5 1.4-1.1 2.1-0.7 0.4 0.3 0.5 0.7 0.6 1.1q0.3 1.1 0.6 2.2z"/>
			<path id="&lt;Path&gt;" fill-rule="evenodd" class="s3" d="m289.6 359.9c3.8-0.1 7.5-1.8 10.7-3.8 1.6-1 3.3-2.4 3.4-4.2 0-1.9-1.7-3.3-3.2-4.5 1.4 0.1 2.7-0.9 2.9-2.2 0.2-1.3-0.6-2.7-1.9-3.1-0.8-0.3-1.9-0.3-2-1.2-0.1-0.4 0.2-0.9 0.6-1.3q1.3-1.4 2.6-2.7c0.5-0.6 1.1-1.3 1.4-2.1 0.2-0.7 0.1-1.7-0.6-2.2-0.9-0.6-2.1-0.2-3 0.3-5.5 2.7-10.3 6.6-14.1 11.3-2.1 2.7-4.8 5.7-5.4 9.2-0.9 4.8 4.5 6.6 8.6 6.5z"/>
		</g>
	</g>
</svg>