<svg version="1.2" xmlns="http://www.w3.org/2000/svg" viewBox="188 310 135 135" width="135" height="135">
	<title>138708-OT943N-844</title>
	<style>
		.s0 { fill: #f99e4d } 
		.s1 { fill: #32302d } 
		.s2 { fill: #e58435 } 
		.s3 { fill: #fdd2b9 } 
		.s4 { fill: #d36640 } 
	</style>
	<g id="Folder 1">
		<g id="&lt;Group&gt;">
			<path id="&lt;Path&gt;" class="s0" d="m296.9 344.6c-8.9-8-19.9-12.4-31.7-13.8-11.8-1.4-24.1-1.2-35.4 2.9-3.9 1.4-7.7 3.3-11.1 5.6-8.1 5.6-14.4 13.6-18.5 22.5-8.6 18.5-7.1 42.1 6.2 57.5 7.8 9 19 14.7 30.6 17.6 19.9 5.2 42.6 2.1 58.5-11 11.8-9.9 19.1-25 19.4-40.4 0.3-15.8-6.7-30.7-18-40.9z"/>
			<g id="&lt;Group&gt;">
				<path id="&lt;Path&gt;" class="s1" d="m276.7 376.3c1.9 0.7 4.1 0.6 5.9-0.4 1.8-0.9 3.1-2.7 3.4-4.8 1.5-9.4-15.2-10.7-13.9-0.3 0.4 2.5 2.3 4.6 4.6 5.5z"/>
			</g>
			<g id="&lt;Group&gt;">
				<path id="&lt;Path&gt;" class="s1" d="m229.5 377c1.9 0.7 4.1 0.6 5.9-0.4 1.8-0.9 3.2-2.7 3.5-4.7 1.5-9.5-15.3-10.8-13.9-0.4 0.3 2.5 2.2 4.6 4.5 5.5z"/>
			</g>
			<path id="&lt;Path&gt;" class="s2" d="m247.7 374.8c0.9-2.7 2.1-5.5 4.3-7.3 2.1-1.8 5.6-2.4 7.8-0.6 1.2 1 1.8 2.5 2.3 3.9 2 5.5 3.2 11.4 3.4 17.3 0.2 3.2-0.1 6.8-2.5 9.1-1.4 1.3-3.4 2-5.3 2.4-2.6 0.5-5.3 0.8-7.8 0-2-0.5-4.1-1.9-5.1-3.7-0.8-1.6-0.4-3.7-0.3-5.4 0.5-5.3 1.5-10.6 3.2-15.7z"/>
			<path id="&lt;Path&gt;" class="s3" d="m259.5 394.3c-2.4-0.2-4.9 0-7.3 0.3-3.7 0.4-7.3 1.1-10.6 2.8-3.9 2.2-6.9 5.9-8.5 10.2-1.4 3.6-2 8.3-1.1 12.1 0.7 3 3 6 5 8.2 4.4 4.9 10.4 8.3 16.9 9q0.2 0 0.3 0c7.9 0.9 16-2.3 21.4-8.1 5.8-6.2 6-16.2 1.8-23.5-3.1-5.5-8.8-9.6-15.1-10.7q-1.4-0.3-2.8-0.3z"/>
			<g id="&lt;Group&gt;">
				<path id="&lt;Path&gt;" class="s0" d="m219.5 322.9c-4.9-2.7-10.8-3.5-16-1.7-5.3 1.8-9.6 6.4-10.5 11.9-0.7 4.1 0.4 8.3 2.1 12.1 1.5 3.3 3.4 6.4 5.9 8.9 1.1 1.1 2.3 2 3.8 2.2 1 0 2.1-0.4 3.1-0.8 6-2.6 11.6-6.3 16.3-10.8 2.1-2 5.2-4.6 6-7.5 0.8-2.7-1.5-5.5-3-7.5-2.1-2.7-4.7-5.1-7.7-6.8z"/>
				<path id="&lt;Path&gt;" class="s2" d="m206.5 330c-2 0.6-4 1.6-5.1 3.5-1.4 2.6-0.4 5.8 0.7 8.6 0.9 2.4 2.1 5 4.6 5.6 1.6 0.4 3.3-0.3 4.9-1.1 2.6-1.3 5.2-2.7 7.3-4.7 1.4-1.3 3.4-3.5 3.6-5.6 0.2-1.8-1.7-3.1-3.1-4-3.7-2.5-8.5-3.4-12.9-2.3z"/>
			</g>
			<g id="&lt;Group&gt;">
				<path id="&lt;Path&gt;" class="s0" d="m290.6 322.9c4.8-2.7 10.8-3.5 16-1.7 5.2 1.8 9.5 6.4 10.5 11.9 0.7 4.1-0.4 8.3-2.1 12.1-1.5 3.3-3.4 6.4-6 8.9-1 1.1-2.2 2-3.7 2.2-1.1 0-2.1-0.4-3.1-0.8-6.1-2.6-11.6-6.3-16.4-10.8-2.1-2-5.1-4.6-6-7.5-0.8-2.7 1.5-5.5 3-7.5 2.1-2.7 4.7-5.1 7.8-6.8z"/>
				<path id="&lt;Path&gt;" class="s2" d="m303.6 330c2 0.6 4 1.6 5 3.5 1.5 2.6 0.4 5.8-0.6 8.6-0.9 2.4-2.2 5-4.6 5.6-1.7 0.4-3.4-0.3-4.9-1.1-2.6-1.3-5.2-2.7-7.3-4.7-1.4-1.3-3.5-3.5-3.6-5.6-0.2-1.8 1.7-3.1 3-4 3.8-2.5 8.6-3.4 13-2.3z"/>
			</g>
			<g id="&lt;Group&gt;">
				<path id="&lt;Path&gt;" class="s4" d="m222.4 354c-0.3 0.6-0.6 1.3-0.3 1.9 0.4 0.5 1.2 0.5 1.8 0.5q4.5-0.1 8.9-0.3c2.2-0.1 4.6-0.1 6.5 1 1.4 0.7 2.4 2 3.4 3.1 1 1.2 2.1 2.4 3.6 3 1.4 0.5 3.3 0.3 4.2-0.9 0.7-0.9 0.7-2.2 0.3-3.3-0.4-1-1.1-1.9-1.9-2.8-6.4-6.8-20.2-12.1-26.5-2.2z"/>
				<path id="&lt;Path&gt;" class="s4" d="m209.7 368.3c-0.3 1.7-0.6 3.5-0.5 5.2 0.2 1.8 1 3.5 2.4 4.6 0.7 0.5 1.6 0.8 2.3 0.3 0.5-0.3 0.7-0.9 0.9-1.5q1.1-3.5 2.2-7 0.8-2.5 1.5-5c0.5-1.4 1-3.8-0.7-4.6-1.2-0.5-2.9 0.5-3.9 1.1-2.7 1.3-3.6 4.2-4.2 6.9z"/>
				<path id="&lt;Path&gt;" class="s4" d="m230 393c3.2-0.3 6.2-2.5 7.1-5.6 0.4-1.2 0.3-2.7-0.7-3.4-1.8-1.1-5.1 0.7-7.1 0.7-2 0-3.7-0.9-5.7-0.7-5 0.5-3.1 4.6-0.2 6.9 1.8 1.4 4.2 2.3 6.6 2.1z"/>
				<path id="&lt;Path&gt;" class="s4" d="m210.4 388.6c1.5 1.2 3.3 1.9 5 2.9 1.7 1 3.3 2.2 4.2 3.9 0.9 1.7 0.9 4-0.5 5.4-1 1-2.6 1.4-4.1 1.3-4.9-0.1-9.3-3.6-11.6-7.9-2.3-4.4-3-10-2.5-14.9 0.2-1.8 1-3 2.7-1.7 1.7 1.3 1.9 3.3 2.5 5.1 0.8 2.4 2.3 4.4 4.3 5.9z"/>
				<path id="&lt;Path&gt;" class="s4" d="m254.7 342.7c-2.5-1.5-5.2-2.7-7.9-3.6-2.2-0.6-4.8-1.8-7.1-1.5-4.5 0.5-10.2 1.9-13.2 5.6-0.3 0.4-0.6 0.9-0.5 1.5 0.1 0.6 0.7 1 1.3 1.1 0.6 0.1 1.2-0.1 1.8-0.3 3.3-1 6.8-1.5 10.2-1.3 3.4 0.3 6.8 1.4 9.5 3.5 1.4 1 2.6 2.3 4.2 3.1 1.5 0.8 3.6 0.9 4.8-0.3 1.2-1.1 1.1-3.1 0.4-4.5-0.8-1.4-2.2-2.4-3.5-3.3z"/>
				<path id="&lt;Path&gt;" class="s4" d="m222.5 405.2c0 1.1 0.3 2.3 1.1 3.1 1 0.9 2.5 1.2 3.8 0.7 1.3-0.5 2.3-1.6 2.9-2.8 1.2-2.5 1.8-7.7-2.2-7.9-3.3-0.3-5.6 4-5.6 6.9z"/>
				<path id="&lt;Path&gt;" class="s4" d="m208.8 357.1c0.4 0.9 1.7 1.1 2.7 1 2.6-0.2 9.2-3.1 8.1-6.6-0.9-2.8-5.6-2.4-7.4-1.1-1.4 1-4.4 4.8-3.4 6.7z"/>
			</g>
			<g id="&lt;Group&gt;">
				<path id="&lt;Path&gt;" class="s4" d="m289 354c0.4 0.6 0.7 1.3 0.3 1.9-0.3 0.5-1.1 0.5-1.7 0.5q-4.5-0.1-8.9-0.3c-2.3-0.1-4.6-0.1-6.6 1-1.3 0.7-2.3 2-3.3 3.1-1 1.2-2.1 2.4-3.6 3-1.4 0.5-3.3 0.3-4.2-0.9-0.7-0.9-0.7-2.2-0.4-3.3 0.4-1 1.2-1.9 1.9-2.8 6.4-6.8 20.3-12.1 26.5-2.2z"/>
				<path id="&lt;Path&gt;" class="s4" d="m301.7 368.3c0.4 1.7 0.7 3.5 0.5 5.2-0.1 1.8-0.9 3.5-2.3 4.6-0.7 0.5-1.7 0.8-2.3 0.3-0.5-0.3-0.7-0.9-0.9-1.5q-1.1-3.5-2.2-7-0.8-2.5-1.6-5c-0.4-1.4-1-3.8 0.8-4.6 1.1-0.5 2.9 0.5 3.9 1.1 2.6 1.3 3.6 4.2 4.1 6.9z"/>
				<path id="&lt;Path&gt;" class="s4" d="m281.5 393c-3.2-0.3-6.2-2.5-7.2-5.6-0.3-1.2-0.3-2.7 0.8-3.4 1.7-1.1 5.1 0.7 7 0.7 2 0 3.8-0.9 5.8-0.7 5 0.5 3 4.6 0.2 6.9-1.9 1.4-4.3 2.3-6.6 2.1z"/>
				<path id="&lt;Path&gt;" class="s4" d="m301.1 388.6c-1.5 1.2-3.3 1.9-5 2.9-1.7 1-3.3 2.2-4.2 3.9-0.9 1.7-0.9 4 0.4 5.4 1.1 1 2.7 1.4 4.2 1.3 4.9-0.1 9.3-3.6 11.5-7.9 2.3-4.4 3.1-10 2.5-14.9-0.2-1.8-0.9-3-2.7-1.7-1.6 1.3-1.8 3.3-2.4 5.1-0.8 2.4-2.3 4.4-4.3 5.9z"/>
				<path id="&lt;Path&gt;" class="s4" d="m256.8 342.7c2.5-1.5 5.1-2.7 7.9-3.6 2.2-0.6 4.8-1.8 7.1-1.5 4.5 0.5 10.2 1.9 13.1 5.6 0.4 0.4 0.7 0.9 0.6 1.5-0.1 0.6-0.7 1-1.3 1.1-0.7 0.1-1.3-0.1-1.9-0.3-3.3-1-6.7-1.5-10.1-1.3-3.4 0.3-6.8 1.4-9.5 3.5-1.4 1-2.6 2.3-4.2 3.1-1.5 0.8-3.6 0.9-4.8-0.3-1.2-1.1-1.2-3.1-0.4-4.5 0.8-1.4 2.1-2.4 3.5-3.3z"/>
				<path id="&lt;Path&gt;" class="s4" d="m289 405.2c-0.1 1.1-0.3 2.3-1.1 3.1-1 0.9-2.5 1.2-3.8 0.7-1.3-0.5-2.3-1.6-2.9-2.8-1.2-2.5-1.9-7.7 2.2-7.9 3.3-0.3 5.6 4 5.6 6.9z"/>
				<path id="&lt;Path&gt;" class="s4" d="m302.7 357.1c-0.5 0.9-1.7 1.1-2.7 1-2.6-0.2-9.2-3.1-8.1-6.6 0.9-2.8 5.6-2.4 7.3-1.1 1.5 1 4.5 4.8 3.5 6.7z"/>
			</g>
			<path id="&lt;Path&gt;" class="s1" d="m261.3 428.7c-0.8-0.4-2-1.2-3.3-1.7q0-0.2 0-0.3-0.3-10.1-0.6-20.1c0.8-0.3 1.6-0.7 2.2-1.2 1.9-1.4 9-9.2 6.4-11.6-1.2-1.1-5.8-0.4-7.4-0.4-4.3-0.1-8.4-0.5-12.6 0.5-0.9 0.2-1.8 0.7-2.3 1.4q-0.4 0.5-0.4 1.2c0 1 0.9 1.8 1.7 2.5q3.3 2.7 6.5 5.5c1.1 0.9 2.3 1.9 3.8 2.2-0.1 4.6-0.3 9.2-0.5 13.9 0 1.9-0.1 3.9 0.2 5.9-1.5 0.4-3.5 2.5-4.7 3.4-0.6 0.4-1.2 1.1-0.9 1.8 0.2 0.5 0.8 0.6 1.3 0.5 0.5-0.1 1-0.4 1.4-0.7 2.2-1.3 5.1-1.5 7.4-0.5 0.6 0.3 1.1 0.5 1.7 0.6 0.6 0.1 1.3-0.1 1.5-0.7 0.2-0.4 0.1-1-0.2-1.4-0.3-0.4-0.8-0.6-1.2-0.8z"/>
		</g>
	</g>
</svg>