<svg version="1.2" xmlns="http://www.w3.org/2000/svg" viewBox="188 310 135 135" width="135" height="135">
	<title>138708-OT943N-844</title>
	<style>
		.s0 { fill: #525d65 } 
		.s1 { fill: #32302d } 
		.s2 { fill: #d69f90 } 
		.s3 { fill: #ffffff } 
		.s4 { fill: #fcd3c6 } 
	</style>
	<g id="Folder 1">
		<g id="&lt;Group&gt;">
			<path id="&lt;Path&gt;" class="s0" d="m299.7 333.2c-9.3-8.4-20.8-12.9-33.2-14.4-12.4-1.5-25.3-1.2-37.1 3-4.1 1.5-8.1 3.4-11.7 5.9-8.5 5.9-15.1 14.2-19.4 23.6-9.1 19.3-7.5 44.1 6.5 60.2 8.2 9.5 19.9 15.5 32.1 18.6 20.9 5.3 44.7 2.2 61.3-11.6 12.4-10.4 20-26.2 20.3-42.3 0.4-16.6-6.9-32.2-18.8-43z"/>
			<g id="&lt;Group&gt;">
				<path id="&lt;Path&gt;" class="s1" d="m270.4 364.3c2 0.7 4.3 0.6 6.2-0.4 1.9-1 3.3-2.9 3.6-5 1.6-10-16-11.3-14.6-0.4 0.4 2.6 2.3 4.9 4.8 5.8z"/>
			</g>
			<g id="&lt;Group&gt;">
				<path id="&lt;Path&gt;" class="s1" d="m238.3 364.3c2 0.7 4.3 0.6 6.2-0.4 1.9-1 3.3-2.9 3.6-5 1.5-10-16-11.3-14.6-0.4 0.3 2.6 2.3 4.9 4.8 5.8z"/>
			</g>
			<path id="&lt;Path&gt;" class="s2" d="m243.1 418.8c3.2 2.2 7.1 3.4 11 4 3.6 0.5 7.3 0.5 10.8-0.8 4.7-1.7 8.4-6 9.3-11 0.8-4.9-1.3-10.3-5.3-13.3-3.4-2.5-7.8-3.2-12.1-3.3-4.6-0.1-9.3 0.4-13.3 2.7-3.8 2.2-6.6 6.3-6.8 10.8-0.2 4.2 3.2 8.6 6.4 10.9z"/>
			<path id="&lt;Path&gt;" class="s3" d="m237.7 435.3c0.4 1 1 2.2 2.1 2 0.8-0.1 1.2-0.9 1.5-1.7 2.5-6.5 2-13.7 1.4-20.7q-0.4-4.5-0.8-8.9c-0.1-1.1-0.2-2.2-0.9-3.1-0.8-1.1-2.2-1.4-3.6-1.4-2 0.1-4.1 1-5.5 2.5-3.7 4-0.8 10 0.4 14.6q2.3 8.5 5.4 16.7z"/>
			<path id="&lt;Path&gt;" class="s3" d="m270.7 435c0.1 1.1 0.4 2.4 1.4 2.5 0.8 0.2 1.5-0.5 2-1.2 4.1-5.6 5.5-12.8 6.8-19.6q0.9-4.4 1.7-8.8c0.2-1.1 0.4-2.2 0-3.2-0.5-1.2-1.8-2-3.1-2.3-2-0.5-4.2-0.2-5.9 0.9-4.8 2.9-3.6 9.4-3.6 14.2q-0.1 8.8 0.7 17.5z"/>
			<path id="&lt;Path&gt;" class="s4" d="m294.5 390.7c-2.2-4.7-5.5-8.7-9.2-12.2-2.2-2.1-4.6-4.1-7.1-5.8-5.9-3.9-13.4-6.7-20.5-6.6-7.8 0.2-15.5 2.3-22 6.6-2.6 1.7-5 3.7-7.2 5.8-3.7 3.5-7 7.5-9.2 12.2-2.1 4.6-3.1 9.9-2 14.9 1.1 4.9 4.5 9.5 9.2 11.5 5 2.1 11.1 1 15.1-2.8 3.4-3.3 5.1-8.3 9.3-10.8 1.5-0.9 4.4-2.7 6.2-2.5 1.9 0.2 4.7 1.7 6.3 2.7 3.9 2.6 5.5 7.4 8.9 10.6 3.9 3.8 10.1 4.9 15.1 2.8 4.7-2 8-6.6 9.1-11.5 1.1-5 0.2-10.3-2-14.9z"/>
			<path id="&lt;Path&gt;" class="s1" d="m250.8 371.1c-1.9 0.4-3.3 1.2-3 2.8 0 0.7 0.3 1.3 0.6 1.8 2.8 5.3 8.5 7.8 14 4.6 1.9-1.1 2.9-3.7 3-5.8 0-3.5-3.5-3.3-6-3.3-1.3 0-5.5-0.6-8.6-0.1z"/>
		</g>
	</g>
</svg>